#### ##       ##       ##     ##  ######  ####  #######  ##    ## 
 ##  ##       ##       ##     ## ##    ##  ##  ##     ## ###   ## 
 ##  ##       ##       ##     ## ##        ##  ##     ## ####  ## 
 ##  ##       ##       ##     ##  ######   ##  ##     ## ## ## ## 
 ##  ##       ##       ##     ##       ##  ##  ##     ## ##  #### 
 ##  ##       ##       ##     ## ##    ##  ##  ##     ## ##   ### 
#### ######## ########  #######   ######  ####  #######  ##    ## 


Movie Info

Plot: A vengeful father escapes from hell and chases 
 after the men who killed his daughter and kidnapped his granddaughter. 

 IMDB:  
http://www.imdb.com/title/tt1502404/

 IMDB Rating: 6.1



General Info

Size: 1.14GB
 Format: AVI
 Runtime: 1:43:41



Sources

Video - Drive Angry 2011 PPVRIP IFLIX
 Audio - Drive Angry 2011 PPVRIP IFLIX
 (THANKS)



Video Info

ID : 0
 Format : MPEG-4 Visual
 Format profile : Advanced Simple@L5
 Format settings, BVOP : 2
 Format settings, QPel : No
 Format settings, GMC : No warppoints
 Format settings, Matrix : Default (H.263)
 Muxing mode : Packed bitstream
 Codec ID : XVID
 Codec ID/Hint : XviD
 Duration : 1h 43mn
 Bit rate : 1 447 Kbps
 Width : 704 pixels
 Height : 400 pixels
 Display aspect ratio : 16:9
 Frame rate : 29.970 fps
 Color space : YUV
 Chroma subsampling : 4:2:0
 Bit depth : 8 bits
 Scan type : Progressive
 Compression mode : Lossy
 Bits/(Pixel*Frame) : 0.171
 Stream size : 1.05 GiB (91%)
 Writing library : XviD 58


Audio Info
ID : 1
 Format : MPEG Audio
 Format version : Version 1
 Format profile : Layer 3
 Mode : Joint stereo
 Mode extension : MS Stereo
 Codec ID : 55
 Codec ID/Hint : MP3
 Duration : 1h 43mn
 Bit rate mode : Constant
 Bit rate : 128 Kbps
 Channel(s) : 2 channels
 Sampling rate : 44.1 KHz
 Compression mode : Lossy
 Stream size : 94.7 MiB (8%)
 Alignment : Split accross interleaves
 Interleave, duration : 33 ms (1.00 video frame)
 Interleave, preload duration : 501 ms


Encoders Notes
I made a small script to crop & re-size.
 I dropped that into vdubmod.
 There i lowered the brightness,
 increased the contrast, gamma & satiration.
 Then i de-noised it, used a color de-noiser,
 changed the colors with a rgb eq & sharpened it.
 Finaly i re-encoded the audio & muxed it back to the video.
 It looks realy good imo.
 Download the sample first to check that your happy with the quality.
 Enjoy... 


I am looking for:
 Cammers, Cams, Screeners (any type), Cam audio, Line audio, 
 Un-released R6's R5's R4's R2's R1's, 
 A Windows Server & a syncer. 
 If you can provide any of these please
 contact me at illusion@hushmail.me


Greetz & Respect:
 ChattChitto RG, Hunter, iNK, DiNGiE, Recalled2Life,
 Xclusive666, IFLIX, Demedic, ELEKTRI4KA, hiest, Feel-Free, 
 StoNerS, every uploader & encoder out there.




==================================   
http://thepiratebay.org/user/hiest
==================================




Screenshots:
 
http://images2.shareimage.org/images/xy8x8ka1mwv5l1207zg.jpg
 
http://images2.shareimage.org/images/wanv0c273vx84rkoqzj2.jpg
 
http://images4.shareimage.org/images/veuju1uzipqv5yr38k.jpg
 
http://images.shareimage.org/images/flywhkol3gdt3aov9vlb.jpg
 
http://images.shareimage.org/images/92ta6rewp9cxl1p0pd6c.jpg
 
http://images4.shareimage.org/images/s79d55fqqb5cwd886a41.jpg


#### ##       ##       ##     ##  ######  ####  #######  ##    ## 
 ##  ##       ##       ##     ## ##    ##  ##  ##     ## ###   ## 
 ##  ##       ##       ##     ## ##        ##  ##     ## ####  ## 
 ##  ##       ##       ##     ##  ######   ##  ##     ## ## ## ## 
 ##  ##       ##       ##     ##       ##  ##  ##     ## ##  #### 
 ##  ##       ##       ##     ## ##    ##  ##  ##     ## ##   ### 
#### ######## ########  #######   ######  ####  #######  ##    ## 
